<svg xmlns="http://www.w3.org/2000/svg" viewBox="0 0 391.7 392.3" fill="none">
  <path
    d="M94.3,28.2c2.5-1.4,4.4-2.6,6.8-4c27.2,47.1,54.2,93.9,81.3,140.7c0.3-0.1,0.6-0.2,0.9-0.4
    c-7.3-27.4-14.7-54.9-22.1-82.8c2.4-0.7,4.8-1.3,7.5-2.1c7.5,27.8,14.8,55.2,22.2,82.6c0.4,0,0.7-0.1,1.1-0.1
    c0-54,0-107.9,0-162.2c2.7,0,4.8,0,7.6,0c0,53.9,0,107.8,0,161.7c0.5,0.1,0.9,0.1,1.4,0.2c7.3-27.3,14.7-54.6,22.1-82.2
    c2.7,0.8,4.9,1.4,7.5,2.2c-7.5,27.9-14.8,55.5-22.2,83.1c0.3,0.1,0.5,0.2,0.8,0.3c27.1-46.9,54.2-93.9,81.4-141
    c2.4,1.4,4.4,2.5,6.8,3.9c-26.9,46.7-53.8,93.2-80.6,139.6c0.1,0.1,0.3,0.2,0.4,0.2c19.8-19.8,39.5-39.6,59.7-59.9
    c2.3,2.8,3.9,4.6,5.5,6.5c-19.9,19.9-39.9,39.9-59.9,59.9c0.3,0.4,0.6,0.8,0.9,1.1c46.7-27,93.4-53.9,140.4-81
    c1.3,2.2,2.5,4.2,4,6.8c-47.1,27.2-94,54.3-140.9,81.4c0.1,0.3,0.2,0.6,0.3,0.8c27.5-7.4,55-14.7,82.9-22.2
    c0.8,2.5,1.5,4.8,2.3,7.5c-27.4,7.4-54.4,14.6-81.3,21.8c0,0.4,0,0.7,0.1,1.1c53.4,0,106.8,0,160.5,0c0,3,0,5.2,0,8.1
    c-53.5,0-107.1,0-160.6,0c-0.1,0.5-0.1,0.9-0.2,1.4c27,7.3,54,14.5,81.4,21.9c-0.7,2.5-1.3,4.7-2.1,7.5
    c-27.7-7.4-55.3-14.8-82.9-22.2c-0.1,0.3-0.3,0.6-0.4,0.8c46.8,27,93.6,54.1,140.8,81.4c-1.4,2.4-2.6,4.5-4,6.8
    c-46.9-27.1-93.6-54-140.3-81c-0.1,0.2-0.2,0.3-0.4,0.5c20,20,40,40,60.7,60.6c-2.6,2.1-4.4,3.5-6.4,5.1
    c-19.9-19.9-40.1-40.1-60.2-60.3c-0.3,0.3-0.7,0.5-1,0.8c27,46.8,54,93.5,81.2,140.8c-2.3,1.3-4.3,2.5-6.8,3.9
    c-27.2-47.2-54.3-94.1-81.4-141c-0.3,0.1-0.5,0.2-0.8,0.3c7.3,27.5,14.7,54.9,22.2,83c-2.4,0.7-4.7,1.4-7.5,2.2
    c-7.4-27.6-14.7-54.8-22.1-82.1c-0.4,0-0.7,0.1-1.1,0.1c0,53.8,0,107.5,0,161.6c-2.8,0-4.9,0-7.5,0c0-54,0-108.1,0-162.2
    c-0.5-0.1-0.9-0.2-1.4-0.2c-7.4,27.5-14.8,54.9-22.2,82.7c-2.7-0.7-4.9-1.3-7.5-2c7.4-27.8,14.8-55.3,22.1-82.8
    c-0.3-0.1-0.6-0.2-0.9-0.3c-27,46.8-54.1,93.6-81.3,140.7c-2.3-1.4-4.3-2.5-6.8-3.9c27-46.9,54-93.5,80.9-140.2
    c-0.1-0.1-0.2-0.2-0.4-0.3c-20,20-39.9,40-60.5,60.5c-2.2-2.7-3.6-4.5-5-6.2c19.9-19.8,40-39.9,60.1-60.1
    c-0.4-0.5-0.7-0.9-1.1-1.4c-46.7,27-93.4,53.9-140.5,81.1c-1.4-2.3-2.6-4.2-4.1-6.7c46.5-26.9,92.8-53.6,139.1-80.4
    c-0.2-0.4-0.3-0.9-0.5-1.3c-26.8,7.2-53.6,14.3-81,21.6c-0.6-2.4-1.2-4.7-2-7.5c27.4-7.4,54.5-14.6,81.5-21.9
    c0-0.3-0.1-0.7-0.1-1c-53.5,0-107,0-160.9,0c0-3,0-5.3,0-8.2c53.6,0,107,0,160.4,0c0.1-0.4,0.1-0.9,0.2-1.3
    c-26.9-7.2-53.7-14.4-81.1-21.8c0.7-2.6,1.3-4.9,1.9-7.6c27.3,7.3,54.3,14.5,81.2,21.7c0.2-0.4,0.4-0.8,0.5-1.3
    c-46.3-26.7-92.6-53.5-139.3-80.5c1.3-2.2,2.4-4.2,4-6.8c46.9,27.1,93.7,54.1,141.2,81.5c-20.7-20.7-40.7-40.7-60.9-60.9
    c2.7-2.2,4.6-3.8,6.5-5.4c19.5,19.5,39.5,39.6,59.4,59.6c0.4-0.3,0.8-0.6,1.2-0.9C148.3,121.8,121.4,75.1,94.3,28.2z
    M218.3,196.4c0.1-12.8-9.6-22.7-22.1-22.8c-12.9-0.1-23.1,9.9-23.1,22.5c0,12.4,10.1,22.5,22.5,22.5
    C208.4,218.7,218.2,209,218.3,196.4z"
    fill="#111111"
  />
  <path
    d="M212.2,196.3c-0.1,9.2-7.4,16.4-16.6,16.3c-9.2-0.1-16.4-7.4-16.3-16.6c0.1-9.2,7.5-16.4,16.6-16.3
    C205.1,179.8,212.3,187.1,212.2,196.3z"
    fill="#111111"
  />
</svg>
